<mxfile host="app.diagrams.net" modified="2023-03-04T08:51:52.293Z" agent="5.0 (Windows NT 10.0; Win64; x64) AppleWebKit/537.36 (KHTML, like Gecko) Chrome/110.0.0.0 Safari/537.36" etag="U2U1130-BQGvUOoAuqQ0" version="21.0.2" type="github">
  <diagram id="C5RBs43oDa-KdzZeNtuy" name="Page-1">
    <mxGraphModel dx="1562" dy="829" grid="1" gridSize="10" guides="1" tooltips="1" connect="1" arrows="1" fold="1" page="1" pageScale="1" pageWidth="827" pageHeight="1169" math="0" shadow="0">
      <root>
        <mxCell id="WIyWlLk6GJQsqaUBKTNV-0" />
        <mxCell id="WIyWlLk6GJQsqaUBKTNV-1" parent="WIyWlLk6GJQsqaUBKTNV-0" />
        <mxCell id="CWG5PIxTo7_z_JZTM5aV-68" value="" style="edgeStyle=orthogonalEdgeStyle;rounded=0;orthogonalLoop=1;jettySize=auto;html=1;" edge="1" parent="WIyWlLk6GJQsqaUBKTNV-1" source="CWG5PIxTo7_z_JZTM5aV-69" target="CWG5PIxTo7_z_JZTM5aV-83">
          <mxGeometry relative="1" as="geometry" />
        </mxCell>
        <mxCell id="CWG5PIxTo7_z_JZTM5aV-69" value="Start" style="rounded=1;whiteSpace=wrap;html=1;fontSize=12;glass=0;strokeWidth=1;shadow=0;" vertex="1" parent="WIyWlLk6GJQsqaUBKTNV-1">
          <mxGeometry x="307" y="40" width="120" height="40" as="geometry" />
        </mxCell>
        <mxCell id="CWG5PIxTo7_z_JZTM5aV-72" value="" style="edgeStyle=orthogonalEdgeStyle;rounded=0;orthogonalLoop=1;jettySize=auto;html=1;" edge="1" parent="WIyWlLk6GJQsqaUBKTNV-1" source="CWG5PIxTo7_z_JZTM5aV-74" target="CWG5PIxTo7_z_JZTM5aV-79">
          <mxGeometry relative="1" as="geometry" />
        </mxCell>
        <mxCell id="CWG5PIxTo7_z_JZTM5aV-74" value="user_input" style="whiteSpace=wrap;html=1;shadow=0;strokeWidth=1;spacing=6;spacingTop=-4;" vertex="1" parent="WIyWlLk6GJQsqaUBKTNV-1">
          <mxGeometry x="307" y="230" width="120" height="60" as="geometry" />
        </mxCell>
        <mxCell id="CWG5PIxTo7_z_JZTM5aV-89" style="edgeStyle=orthogonalEdgeStyle;rounded=0;orthogonalLoop=1;jettySize=auto;html=1;exitX=0;exitY=0.5;exitDx=0;exitDy=0;entryX=0.5;entryY=0;entryDx=0;entryDy=0;" edge="1" parent="WIyWlLk6GJQsqaUBKTNV-1" source="CWG5PIxTo7_z_JZTM5aV-79" target="CWG5PIxTo7_z_JZTM5aV-86">
          <mxGeometry relative="1" as="geometry" />
        </mxCell>
        <mxCell id="CWG5PIxTo7_z_JZTM5aV-90" style="edgeStyle=orthogonalEdgeStyle;rounded=0;orthogonalLoop=1;jettySize=auto;html=1;exitX=1;exitY=0.5;exitDx=0;exitDy=0;entryX=0.5;entryY=0;entryDx=0;entryDy=0;" edge="1" parent="WIyWlLk6GJQsqaUBKTNV-1" source="CWG5PIxTo7_z_JZTM5aV-79" target="CWG5PIxTo7_z_JZTM5aV-81">
          <mxGeometry relative="1" as="geometry" />
        </mxCell>
        <mxCell id="CWG5PIxTo7_z_JZTM5aV-79" value="does letter&lt;br&gt;exist in word?" style="rhombus;whiteSpace=wrap;html=1;shadow=0;strokeWidth=1;spacing=6;spacingTop=-4;" vertex="1" parent="WIyWlLk6GJQsqaUBKTNV-1">
          <mxGeometry x="307" y="325" width="120" height="110" as="geometry" />
        </mxCell>
        <mxCell id="CWG5PIxTo7_z_JZTM5aV-94" value="" style="edgeStyle=orthogonalEdgeStyle;rounded=0;orthogonalLoop=1;jettySize=auto;html=1;" edge="1" parent="WIyWlLk6GJQsqaUBKTNV-1" source="CWG5PIxTo7_z_JZTM5aV-81" target="CWG5PIxTo7_z_JZTM5aV-93">
          <mxGeometry relative="1" as="geometry" />
        </mxCell>
        <mxCell id="CWG5PIxTo7_z_JZTM5aV-81" value="Take away Life + continue" style="whiteSpace=wrap;html=1;shadow=0;strokeWidth=1;spacing=6;spacingTop=-4;" vertex="1" parent="WIyWlLk6GJQsqaUBKTNV-1">
          <mxGeometry x="450" y="415" width="80" height="60" as="geometry" />
        </mxCell>
        <mxCell id="CWG5PIxTo7_z_JZTM5aV-82" style="edgeStyle=orthogonalEdgeStyle;rounded=0;orthogonalLoop=1;jettySize=auto;html=1;exitX=0.5;exitY=1;exitDx=0;exitDy=0;" edge="1" parent="WIyWlLk6GJQsqaUBKTNV-1" source="CWG5PIxTo7_z_JZTM5aV-83">
          <mxGeometry relative="1" as="geometry">
            <mxPoint x="367" y="160" as="targetPoint" />
          </mxGeometry>
        </mxCell>
        <mxCell id="CWG5PIxTo7_z_JZTM5aV-83" value="Generate random&lt;br&gt;word" style="whiteSpace=wrap;html=1;rounded=1;glass=0;strokeWidth=1;shadow=0;" vertex="1" parent="WIyWlLk6GJQsqaUBKTNV-1">
          <mxGeometry x="307" y="100" width="120" height="40" as="geometry" />
        </mxCell>
        <mxCell id="CWG5PIxTo7_z_JZTM5aV-88" style="edgeStyle=orthogonalEdgeStyle;rounded=0;orthogonalLoop=1;jettySize=auto;html=1;exitX=0.5;exitY=1;exitDx=0;exitDy=0;entryX=0.5;entryY=0;entryDx=0;entryDy=0;" edge="1" parent="WIyWlLk6GJQsqaUBKTNV-1" source="CWG5PIxTo7_z_JZTM5aV-85" target="CWG5PIxTo7_z_JZTM5aV-74">
          <mxGeometry relative="1" as="geometry" />
        </mxCell>
        <mxCell id="CWG5PIxTo7_z_JZTM5aV-85" value="Generate blanks&lt;br&gt;same as word" style="whiteSpace=wrap;html=1;rounded=1;glass=0;strokeWidth=1;shadow=0;" vertex="1" parent="WIyWlLk6GJQsqaUBKTNV-1">
          <mxGeometry x="307" y="160" width="120" height="40" as="geometry" />
        </mxCell>
        <mxCell id="CWG5PIxTo7_z_JZTM5aV-92" value="" style="edgeStyle=orthogonalEdgeStyle;rounded=0;orthogonalLoop=1;jettySize=auto;html=1;" edge="1" parent="WIyWlLk6GJQsqaUBKTNV-1" source="CWG5PIxTo7_z_JZTM5aV-86" target="CWG5PIxTo7_z_JZTM5aV-91">
          <mxGeometry relative="1" as="geometry" />
        </mxCell>
        <mxCell id="CWG5PIxTo7_z_JZTM5aV-86" value="Replace the blank&lt;br&gt;with the letter" style="rounded=0;whiteSpace=wrap;html=1;" vertex="1" parent="WIyWlLk6GJQsqaUBKTNV-1">
          <mxGeometry x="220" y="435" width="100" height="40" as="geometry" />
        </mxCell>
        <mxCell id="CWG5PIxTo7_z_JZTM5aV-95" style="edgeStyle=orthogonalEdgeStyle;rounded=0;orthogonalLoop=1;jettySize=auto;html=1;exitX=0;exitY=0.5;exitDx=0;exitDy=0;entryX=0;entryY=0.5;entryDx=0;entryDy=0;" edge="1" parent="WIyWlLk6GJQsqaUBKTNV-1" source="CWG5PIxTo7_z_JZTM5aV-91" target="CWG5PIxTo7_z_JZTM5aV-74">
          <mxGeometry relative="1" as="geometry">
            <Array as="points">
              <mxPoint x="150" y="593" />
              <mxPoint x="150" y="260" />
            </Array>
          </mxGeometry>
        </mxCell>
        <mxCell id="CWG5PIxTo7_z_JZTM5aV-98" value="No" style="edgeLabel;html=1;align=center;verticalAlign=middle;resizable=0;points=[];" vertex="1" connectable="0" parent="CWG5PIxTo7_z_JZTM5aV-95">
          <mxGeometry x="-0.5225" y="3" relative="1" as="geometry">
            <mxPoint x="33" y="59" as="offset" />
          </mxGeometry>
        </mxCell>
        <mxCell id="CWG5PIxTo7_z_JZTM5aV-101" style="edgeStyle=orthogonalEdgeStyle;rounded=0;orthogonalLoop=1;jettySize=auto;html=1;exitX=1;exitY=0.5;exitDx=0;exitDy=0;entryX=0.5;entryY=0;entryDx=0;entryDy=0;" edge="1" parent="WIyWlLk6GJQsqaUBKTNV-1" source="CWG5PIxTo7_z_JZTM5aV-91" target="CWG5PIxTo7_z_JZTM5aV-99">
          <mxGeometry relative="1" as="geometry" />
        </mxCell>
        <mxCell id="CWG5PIxTo7_z_JZTM5aV-104" value="Yes" style="edgeLabel;html=1;align=center;verticalAlign=middle;resizable=0;points=[];" vertex="1" connectable="0" parent="CWG5PIxTo7_z_JZTM5aV-101">
          <mxGeometry x="-0.8508" y="-1" relative="1" as="geometry">
            <mxPoint x="9" y="-13" as="offset" />
          </mxGeometry>
        </mxCell>
        <mxCell id="CWG5PIxTo7_z_JZTM5aV-91" value="Are all letters guessed?" style="rhombus;whiteSpace=wrap;html=1;rounded=0;" vertex="1" parent="WIyWlLk6GJQsqaUBKTNV-1">
          <mxGeometry x="210" y="535" width="120" height="115" as="geometry" />
        </mxCell>
        <mxCell id="CWG5PIxTo7_z_JZTM5aV-96" style="edgeStyle=orthogonalEdgeStyle;rounded=0;orthogonalLoop=1;jettySize=auto;html=1;exitX=1;exitY=0.5;exitDx=0;exitDy=0;entryX=1;entryY=0.5;entryDx=0;entryDy=0;" edge="1" parent="WIyWlLk6GJQsqaUBKTNV-1" source="CWG5PIxTo7_z_JZTM5aV-93" target="CWG5PIxTo7_z_JZTM5aV-74">
          <mxGeometry relative="1" as="geometry">
            <Array as="points">
              <mxPoint x="600" y="593" />
              <mxPoint x="600" y="260" />
            </Array>
          </mxGeometry>
        </mxCell>
        <mxCell id="CWG5PIxTo7_z_JZTM5aV-97" value="Yes" style="edgeLabel;html=1;align=center;verticalAlign=middle;resizable=0;points=[];" vertex="1" connectable="0" parent="CWG5PIxTo7_z_JZTM5aV-96">
          <mxGeometry x="-0.6519" y="-1" relative="1" as="geometry">
            <mxPoint x="-31" y="31" as="offset" />
          </mxGeometry>
        </mxCell>
        <mxCell id="CWG5PIxTo7_z_JZTM5aV-102" style="edgeStyle=orthogonalEdgeStyle;rounded=0;orthogonalLoop=1;jettySize=auto;html=1;exitX=0;exitY=0.5;exitDx=0;exitDy=0;entryX=0.593;entryY=-0.003;entryDx=0;entryDy=0;entryPerimeter=0;" edge="1" parent="WIyWlLk6GJQsqaUBKTNV-1" source="CWG5PIxTo7_z_JZTM5aV-93" target="CWG5PIxTo7_z_JZTM5aV-99">
          <mxGeometry relative="1" as="geometry">
            <Array as="points">
              <mxPoint x="391" y="593" />
            </Array>
          </mxGeometry>
        </mxCell>
        <mxCell id="CWG5PIxTo7_z_JZTM5aV-103" value="No" style="edgeLabel;html=1;align=center;verticalAlign=middle;resizable=0;points=[];" vertex="1" connectable="0" parent="CWG5PIxTo7_z_JZTM5aV-102">
          <mxGeometry x="-0.4615" y="-1" relative="1" as="geometry">
            <mxPoint x="17" y="-11" as="offset" />
          </mxGeometry>
        </mxCell>
        <mxCell id="CWG5PIxTo7_z_JZTM5aV-93" value="Are there lives left?" style="rhombus;whiteSpace=wrap;html=1;shadow=0;strokeWidth=1;spacing=6;spacingTop=-4;" vertex="1" parent="WIyWlLk6GJQsqaUBKTNV-1">
          <mxGeometry x="435" y="535" width="110" height="115" as="geometry" />
        </mxCell>
        <mxCell id="CWG5PIxTo7_z_JZTM5aV-99" value="Game Over" style="whiteSpace=wrap;html=1;shadow=0;strokeWidth=1;spacing=6;spacingTop=-4;" vertex="1" parent="WIyWlLk6GJQsqaUBKTNV-1">
          <mxGeometry x="320" y="690" width="120" height="60" as="geometry" />
        </mxCell>
      </root>
    </mxGraphModel>
  </diagram>
</mxfile>
